# xmcd
#
# Track frame offsets:
#	150
#	9200
#	28395
#	30512
#	51185
#	54092
#	75632
#	82665
#	99047
#	101812
#	121650
#	123302
#	140350
#	143982
#	163432
#	170925
#	205407
#	209690
#	228790
#	234145
#	250005
#	253815
#	267490
#	270285
#	295150
#
# Disc length: 3977 seconds
#
# Revision: 0
# Processed by: cddbd v1.5.2PL0 Copyright (c) Steve Scherf et al.
# Submitted via: audiograbber 1.83.01
#
DISCID=530f8719
DTITLE=Creme De La Creme - Porno Funk
DYEAR=1999
DGENRE=Hip-Hop
TTITLE0=Meine Damen Und Herren
TTITLE1=Einer Von Vielen Feat. Juliana
TTITLE2=Creme De La Creme
TTITLE3=Drei Chinesen Feat. Die Firma
TTITLE4=Famous !?!
TTITLE5=Letzte Nacht Porno Funk Mix
TTITLE6=Countdown Feat. Doktor Chris
TTITLE7=Diese Zeilen Radio Mix
TTITLE8=Popkomm 98
TTITLE9=Metaphorisches Kung Fu Feat. Doktor Chris
TTITLE10=Kakalaken Intro
TTITLE11=Hasisch Kakalake
TTITLE12=Wie Rockt Die Creme ... Reprise?
TTITLE13=Wasn Das Für Einer?
TTITLE14=Samstag Morgen
TTITLE15=Der Meister Der Zeremonie Feat. O-Flow, Torch Nesti, Gianni, Scope, De
TTITLE15=r M.A.R.C., UGS, Rick Ski, Doktor Chris and Kassler Quassler
TTITLE16=Entspannungspause
TTITLE17=Mann Ohne Schuhe Feat. Gianni
TTITLE18=Bauarbeiterhelm?
TTITLE19=Porno Kings Feat. Der M.A.R.C. and Juliana
TTITLE20=Coco-Bongo Club
TTITLE21=Gleich Gehts Weiter
TTITLE22=Die Band ... Live Skit
TTITLE23=Weisser Rauch Ragga Mix
TTITLE24=Ende
EXTD=
EXTT0=
EXTT1=
EXTT2=
EXTT3=
EXTT4=
EXTT5=
EXTT6=
EXTT7=
EXTT8=
EXTT9=
EXTT10=
EXTT11=
EXTT12=
EXTT13=
EXTT14=
EXTT15=
EXTT16=
EXTT17=
EXTT18=
EXTT19=
EXTT20=
EXTT21=
EXTT22=
EXTT23=
EXTT24=
PLAYORDER=
